<svg xmlns="http://www.w3.org/2000/svg" version="1.1" xmlns:xlink="http://www.w3.org/1999/xlink" xmlns:svgjs="http://svgjs.com/svgjs" width="1920" height="1080" preserveAspectRatio="none" viewBox="0 0 1920 1080"><g mask="url(&quot;#SvgjsMask1195&quot;)" fill="none"><rect width="1920" height="1080" x="0" y="0" fill="rgba(19, 64, 91, 1)"></rect><path d="M0,769.51C142.005,739.705,189.902,561.017,299.249,465.64C387.609,388.568,526.391,369.203,579.046,264.441C632.081,158.923,591.168,34.313,574.828,-82.648C558.421,-200.083,545.96,-318.179,483.562,-419.009C414.016,-531.389,332.633,-670.118,201.434,-686.021C67.734,-702.227,-17.649,-537.833,-145.419,-495.251C-265.989,-455.068,-421.252,-531.862,-515.835,-446.974C-609.642,-362.783,-586.88,-211.663,-600.962,-86.405C-614.606,34.952,-631.696,155.508,-596.724,272.515C-558.224,401.326,-495.868,524.802,-392.564,610.841C-281.871,703.034,-140.985,799.101,0,769.51" fill="#0f3348"></path><path d="M1920 1767.001C2053.014 1765.02 2183.875 1736.4650000000001 2298.523 1668.993 2416.221 1599.726 2511.437 1499.816 2577.29 1380.174 2646.74 1253.997 2700.99 1113.194 2683.103 970.282 2665.075 826.242 2582.489 697.434 2479.084 595.5509999999999 2380.504 498.422 2252.718 434.543 2116.218 411.74199999999996 1988.864 390.46900000000005 1867.386 443.29600000000005 1741.58 472.35900000000004 1606.983 503.453 1452.483 492.94899999999996 1352.422 588.191 1250.188 685.502 1224.284 837.516 1210.387 977.973 1196.923 1114.057 1217.354 1250.556 1274.5990000000002 1374.745 1331.708 1498.6390000000001 1417.58 1609.525 1534.16 1680.379 1649.1309999999999 1750.255 1785.475 1769.005 1920 1767.001" fill="#174d6e"></path></g><defs><mask id="SvgjsMask1195"><rect width="1920" height="1080" fill="#ffffff"></rect></mask></defs></svg>